# xmcd CD database file
#
# Track frame offsets:
#	150
#	13590
#	26732
#	42332
#	55367
#	66040
#	87750
#	105332
#	120450
#	135067
#	148407
#	163970
#	180317
#	196177
#	209525
#	226422
#	238035
#
# Disc length: 3368 seconds
#
# Revision: 0
# Processed by: cddbd v1.5.1PL0 Copyright (c) Steve Scherf et al.
# Submitted via: CDex 1.51
#
DISCID=e40d2611
DTITLE=BEN E. KING - STAND BY ME
DYEAR=1992
DGENRE=R&B
TTITLE0=STAND BY ME
TTITLE1=SPANISH HARLEM
TTITLE2=SUPERNATURAL THING
TTITLE3=DON'T PLAY THAT SONG (You Lied)
TTITLE4=I (Who Have Nothing)
TTITLE5=ALL OF YOUR TOMORROWS
TTITLE6=SHE DOES IT RIGHT
TTITLE7=THE BEGINNING OF IT ALL
TTITLE8=LOVE IS GOING TO GET YOU
TTITLE9=POISON IN MY MIND
TTITLE10=I GUESS IT'S GOODBYE
TTITLE11=TAKE ME TO THE PILOT
TTITLE12=TRAVELLIN' WOMAN
TTITLE13=LOVE IS
TTITLE14=INTO THE MYSTIC
TTITLE15=WHITE MOON
TTITLE16=ONLY YOU KNOW AND I KNOW
EXTD=YEAR: 1992
EXTT0=
EXTT1=
EXTT2=
EXTT3=
EXTT4=
EXTT5=
EXTT6=
EXTT7=
EXTT8=
EXTT9=
EXTT10=
EXTT11=
EXTT12=
EXTT13=
EXTT14=
EXTT15=
EXTT16=
PLAYORDER=
